<?xml version="1.0" ?><svg viewBox="0 0 64 64" xmlns="http://www.w3.org/2000/svg"><title/><g data-name="16" id="_16"><path d="M59.81,9.35,54.15,3.69a1,1,0,0,0-1.41,0l-4.9,4.9a4,4,0,0,0-1.19,2.88,3.72,3.72,0,0,0,.14,1L22.58,36.68l-1.42-1.41a1,1,0,0,0-1.41,0l-1.42,1.41h0a1,1,0,0,0-1.41,0L2.78,50.82a1,1,0,0,0,0,1.42l8.48,8.48A1,1,0,0,0,12,61a1,1,0,0,0,.71-.3L26.82,46.58a1,1,0,0,0,0-1.41l1.41-1.42a1,1,0,0,0,0-1.41l-1.41-1.42L51,16.71a4.16,4.16,0,0,0,1,.14,4,4,0,0,0,2.88-1.19l4.9-4.9a1,1,0,0,0,0-1.41ZM12,58.6,4.9,51.53,17.63,38.8l7.07,7.07Zm7.78-20.5.7-.71,2.83,2.83,1.42,1.41h0l1.41,1.42-.71.7Zm5.65,1.41-.7-.71L24,38.1l23.8-23.81.05.06,1.31,1.31.06.05ZM53.5,14.24a2.13,2.13,0,0,1-2.55.29l-2-2a2.1,2.1,0,0,1-.3-1.07A2,2,0,0,1,49.26,10l4.19-4.19,4.24,4.24Z"/><path d="M16.8,49.53l-4.25,4.24a1,1,0,0,0,0,1.42,1,1,0,0,0,.71.29,1,1,0,0,0,.71-.29L18.21,51a1,1,0,0,0,0-1.42A1,1,0,0,0,16.8,49.53Z"/><path d="M18.92,48.82a1,1,0,0,0,1.41,0l2.12-2.12A1,1,0,0,0,21,45.29l-2.12,2.12A1,1,0,0,0,18.92,48.82Z"/><path d="M14,45.29a1,1,0,0,0-1.42,0L8.31,49.53a1,1,0,0,0,0,1.42,1,1,0,0,0,.71.29A1,1,0,0,0,9.73,51L14,46.7A1,1,0,0,0,14,45.29Z"/><path d="M16.8,41.05l-2.12,2.12a1,1,0,0,0,0,1.41,1,1,0,0,0,.7.29,1,1,0,0,0,.71-.29l2.12-2.12a1,1,0,1,0-1.41-1.41Z"/><path d="M16.09,47.41a1,1,0,0,0-1.41,0l-4.25,4.24a1,1,0,0,0,0,1.42,1,1,0,0,0,1.42,0l4.24-4.25A1,1,0,0,0,16.09,47.41Z"/><path d="M16.8,46.7a1,1,0,0,0,1.41,0l2.12-2.12a1,1,0,0,0-1.41-1.41L16.8,45.29A1,1,0,0,0,16.8,46.7Z"/></g></svg>